<?xml version="1.0" encoding="utf-8"?>
<!-- Generator: Adobe Illustrator 19.1.0, SVG Export Plug-In . SVG Version: 6.00 Build 0)  -->
<!DOCTYPE svg PUBLIC "-//W3C//DTD SVG 1.1//EN" "http://www.w3.org/Graphics/SVG/1.1/DTD/svg11.dtd">
<svg version="1.1" id="Layer_1" xmlns="http://www.w3.org/2000/svg" xmlns:xlink="http://www.w3.org/1999/xlink" x="0px" y="0px"
	 viewBox="0 0 115 150.5" enable-background="new 0 0 115 150.5" xml:space="preserve">
<g>
	<path fill="none" stroke="#FFFFFF" stroke-width="2.5671" stroke-miterlimit="10" d="M109.7,39.4c-2.6,6.5-6.3,12.3-10.9,17.4
		c-9.5,10.3-22.8,17.1-37.7,18c8.4-1.7,14.8-9.1,14.8-18c0-10.2-8.2-18.4-18.4-18.4V2h-4.8c1.6-0.1,3.2-0.2,4.8-0.2
		C81.8,1.8,102.4,17.6,109.7,39.4z"/>
	<path fill="none" stroke="#FFFFFF" stroke-width="2.5671" stroke-miterlimit="10" d="M112.5,56.8c0,30.4-24.6,55-55,55V75.2
		c1.2,0,2.4-0.1,3.6-0.4c14.9-1,28.2-7.7,37.7-18c4.6-5,8.3-10.9,10.9-17.4C111.5,44.9,112.5,50.7,112.5,56.8z"/>
	<path fill="none" stroke="#FFFFFF" stroke-width="2.5671" stroke-miterlimit="10" d="M39.1,56.8c0,9,6.4,16.4,14.9,18.1
		c0,0,0,0,0,0c1.1,0.2,2.3,0.3,3.5,0.3v45.7c0,15.2-12.3,27.5-27.5,27.5c-15.2,0-27.5-12.3-27.5-27.5V11.2c0-4.5,3.2-8.3,7.4-9.2
		h47.6v36.4C47.3,38.4,39.1,46.6,39.1,56.8z"/>
</g>
</svg>
